<?xml version="1.0" standalone="no"?>
<!DOCTYPE svg PUBLIC "-//W3C//DTD SVG 20010904//EN"
 "http://www.w3.org/TR/2001/REC-SVG-20010904/DTD/svg10.dtd">
<svg version="1.0" xmlns="http://www.w3.org/2000/svg"
 width="501.000000pt" height="501.000000pt" viewBox="0 0 501.000000 501.000000"
 preserveAspectRatio="xMidYMid meet">
<metadata>
Created by potrace 1.14, written by Peter Selinger 2001-2017
</metadata>
<g transform="translate(0.000000,501.000000) scale(0.100000,-0.100000)"
fill="#000000" stroke="none">
<path d="M2468 4939 c-5 -3 -20 -5 -34 -3 -13 1 -24 -1 -24 -6 0 -11 -33 -7
-42 5 -5 7 -8 6 -8 0 0 -9 -47 -14 -153 -16 -9 0 -15 -5 -11 -11 4 -6 -1 -6
-14 1 -12 6 -23 7 -26 2 -3 -5 -16 -9 -28 -10 -45 -2 -73 -7 -83 -12 -5 -4
-22 -6 -37 -5 -14 1 -24 -2 -22 -6 3 -4 -5 -8 -18 -9 -13 0 -32 -3 -43 -5 -11
-2 -28 -5 -37 -6 -10 -1 -18 -6 -18 -11 0 -5 -6 -7 -12 -4 -7 2 -28 -2 -46
-10 -18 -7 -37 -11 -42 -8 -6 4 -10 1 -10 -5 0 -6 -4 -9 -9 -5 -5 3 -12 1 -16
-5 -4 -6 -11 -8 -16 -5 -5 4 -9 2 -9 -3 0 -5 -7 -9 -15 -10 -8 -1 -22 -3 -30
-4 -8 -1 -15 -5 -15 -10 0 -4 -3 -7 -7 -6 -14 3 -68 -15 -100 -33 -18 -10 -33
-15 -33 -11 0 4 -4 1 -9 -6 -4 -7 -14 -14 -22 -15 -26 -4 -228 -111 -281 -148
-14 -11 -29 -19 -34 -19 -4 0 -26 -16 -50 -35 -23 -19 -47 -35 -52 -35 -6 0
-12 -3 -14 -7 -1 -5 -37 -35 -78 -68 -41 -33 -82 -66 -91 -75 -8 -8 -38 -36
-65 -61 -76 -71 -144 -146 -219 -239 -74 -92 -195 -271 -195 -289 0 -6 -3 -11
-8 -11 -4 0 -23 -34 -42 -75 -19 -41 -38 -75 -42 -75 -5 0 -8 -9 -8 -20 0 -11
-4 -20 -10 -20 -5 0 -10 -7 -10 -16 0 -8 -10 -36 -21 -62 -12 -25 -22 -51 -23
-57 -1 -5 -4 -14 -7 -20 -4 -5 -12 -28 -19 -50 -7 -22 -17 -46 -23 -52 -5 -7
-7 -13 -4 -13 4 0 -1 -19 -9 -42 -8 -24 -17 -59 -20 -78 -4 -19 -9 -37 -13
-40 -3 -3 -7 -14 -8 -25 0 -11 -4 -31 -7 -45 -16 -68 -37 -209 -43 -287 -7
-111 -8 -456 -1 -503 3 -19 9 -55 13 -80 6 -41 17 -99 30 -158 7 -28 31 -119
49 -182 21 -73 60 -175 68 -178 5 -2 8 -12 8 -23 0 -11 7 -31 16 -44 9 -14 12
-25 8 -25 -5 0 -4 -4 1 -8 6 -4 21 -32 35 -62 14 -30 29 -58 35 -62 7 -5 7 -8
0 -8 -6 0 -6 -3 1 -8 6 -4 26 -36 45 -72 19 -36 41 -72 49 -80 8 -8 24 -32 34
-53 11 -20 23 -37 28 -37 4 0 8 -7 8 -15 0 -7 6 -18 13 -22 8 -4 18 -15 23
-24 8 -14 29 -40 97 -122 118 -142 363 -354 525 -454 42 -26 79 -50 82 -53 10
-13 313 -160 329 -160 9 0 25 -7 35 -15 11 -8 25 -15 32 -15 7 0 25 -5 41 -12
15 -6 33 -12 38 -14 137 -40 258 -73 285 -77 85 -14 106 -18 128 -23 121 -26
653 -26 762 1 14 4 36 8 50 9 14 2 32 5 40 9 15 6 71 16 103 20 9 1 17 4 17 8
0 3 10 5 23 5 12 -1 27 1 32 5 14 9 158 53 168 51 4 -1 7 2 7 6 0 5 6 9 14 9
22 0 233 92 308 135 37 21 72 38 78 38 5 0 10 5 10 10 0 6 7 10 15 10 8 0 15
5 15 12 0 6 3 9 6 6 6 -7 164 98 176 116 4 6 8 7 8 2 0 -6 8 -1 19 10 23 24
60 54 66 54 12 0 224 204 285 275 19 23 51 60 70 84 19 24 47 58 63 76 15 18
27 36 27 40 0 4 10 16 22 26 11 11 18 19 13 19 -4 0 3 15 17 33 65 89 218 382
218 420 0 9 5 17 10 17 6 0 10 8 10 18 0 10 3 22 7 26 4 3 8 16 10 27 2 11 10
33 18 50 9 16 13 34 10 39 -3 6 -1 10 4 10 6 0 10 3 9 8 -1 4 4 32 12 62 24
97 38 89 -144 84 -89 -2 -179 -6 -201 -8 -95 -11 -132 -16 -155 -21 -14 -3
-41 -8 -60 -11 -46 -8 -64 -12 -67 -14 -2 -2 -7 -4 -13 -5 -5 -1 -11 -3 -12
-5 -2 -1 -12 -3 -23 -5 -11 -2 -33 -6 -50 -10 -16 -4 -34 -8 -40 -9 -5 -1 -16
-5 -22 -9 -7 -5 -17 -5 -23 -2 -5 3 -10 2 -10 -3 0 -6 -17 -13 -37 -17 -21 -4
-51 -14 -68 -23 -16 -9 -34 -17 -40 -17 -25 -2 -85 -28 -85 -36 0 -6 -4 -8 -8
-5 -5 3 -20 -1 -35 -9 -15 -8 -27 -11 -27 -7 0 3 -7 -3 -15 -14 -8 -10 -15
-16 -15 -11 0 4 -15 0 -32 -10 -18 -9 -37 -17 -41 -18 -4 0 -12 -7 -17 -15 -5
-8 -10 -11 -10 -6 0 5 -7 3 -15 -4 -8 -7 -15 -9 -15 -4 0 5 -5 1 -11 -9 -6 -9
-14 -15 -18 -13 -4 3 -18 -4 -29 -15 -12 -11 -22 -17 -22 -14 0 3 -20 -8 -45
-25 -25 -17 -45 -27 -45 -23 0 4 -5 0 -11 -9 -5 -10 -17 -18 -24 -18 -8 0 -15
-4 -15 -10 0 -5 -7 -10 -15 -10 -9 0 -18 -7 -21 -15 -4 -8 -10 -13 -14 -10 -4
2 -19 -6 -34 -20 -14 -13 -26 -22 -26 -19 0 3 -21 -10 -47 -28 -27 -18 -50
-31 -52 -29 -2 1 -7 -1 -10 -6 -15 -19 -64 -57 -57 -43 7 13 6 13 -6 0 -14
-16 -42 -35 -68 -47 -8 -4 -24 -15 -34 -25 -18 -16 -37 -23 -58 -19 -5 0 -7
-4 -5 -9 1 -6 -16 -20 -38 -33 -22 -12 -41 -25 -43 -29 -2 -5 -10 -8 -18 -8
-8 0 -14 -3 -14 -8 0 -9 -61 -38 -73 -34 -5 1 -6 -2 -2 -8 3 -5 -1 -10 -9 -10
-9 0 -16 -5 -16 -11 0 -5 -4 -7 -10 -4 -5 3 -10 1 -10 -5 0 -6 -4 -8 -10 -5
-5 3 -10 1 -10 -4 0 -6 -3 -10 -7 -9 -16 3 -43 -15 -36 -25 3 -5 1 -7 -5 -3
-6 3 -13 2 -17 -4 -4 -6 -11 -8 -16 -5 -5 4 -9 2 -9 -3 0 -9 -37 -25 -52 -23
-5 1 -8 -4 -8 -9 0 -6 -4 -10 -10 -10 -10 0 -161 -71 -170 -80 -3 -3 -12 -6
-20 -8 -8 -2 -32 -11 -55 -21 -43 -20 -150 -60 -175 -67 -8 -2 -40 -11 -70
-19 -70 -20 -191 -45 -255 -53 -68 -8 -323 -7 -360 1 -16 4 -39 9 -50 11 -53
11 -81 20 -91 28 -7 5 -16 8 -20 7 -10 -2 -27 4 -94 34 -56 26 -83 31 -53 10
12 -8 34 -26 50 -39 15 -13 32 -24 36 -24 5 0 29 -14 53 -31 51 -35 196 -109
213 -109 6 0 11 -5 11 -12 0 -6 3 -9 6 -5 3 3 36 -6 72 -20 66 -24 193 -60
242 -68 14 -2 41 -7 60 -11 19 -4 52 -7 73 -8 20 0 37 -5 37 -10 0 -4 6 -3 14
3 8 7 16 8 19 4 6 -10 248 -10 264 0 6 4 14 3 18 -3 4 -6 12 -7 18 -3 7 4 35
8 62 9 28 2 50 3 50 4 0 1 11 3 25 5 14 2 34 5 45 8 18 4 109 19 127 21 3 1 9
4 13 8 4 4 13 4 20 2 7 -3 16 0 20 5 3 6 11 9 16 6 5 -4 15 -3 22 2 6 4 19 8
27 10 26 4 122 34 219 69 52 19 100 34 108 34 7 0 13 4 13 8 0 5 6 9 13 9 6 0
35 11 62 23 28 13 53 24 56 24 8 1 283 140 289 146 5 5 60 36 97 54 13 6 23
14 23 19 0 4 7 7 15 7 8 0 15 5 15 11 0 6 7 9 15 5 9 -3 15 0 15 7 0 7 16 20
36 27 20 8 40 23 45 33 6 10 15 17 21 15 6 -2 22 6 36 19 13 12 28 20 33 17 5
-3 9 2 9 10 0 9 7 16 15 16 8 0 15 5 15 10 0 6 7 10 15 10 8 0 15 5 15 11 0 5
4 8 9 5 5 -3 11 1 15 9 3 8 18 21 33 27 15 7 40 25 56 41 15 15 27 25 27 21 0
-4 7 1 15 12 8 10 15 16 15 12 0 -3 13 6 29 20 78 72 91 83 91 75 0 -4 7 3 16
15 8 12 20 22 25 22 13 0 40 26 34 32 -3 3 1 5 9 5 13 0 13 -4 0 -29 -8 -16
-19 -26 -25 -23 -5 4 -9 3 -8 -2 3 -18 -1 -36 -7 -30 -4 4 -15 -3 -25 -15 -11
-11 -19 -17 -19 -12 0 5 -7 -2 -16 -14 -8 -12 -21 -22 -29 -22 -9 0 -12 -6 -8
-15 3 -9 1 -15 -4 -13 -5 2 -27 -16 -50 -39 -22 -23 -43 -39 -46 -37 -3 3 -8
-4 -12 -15 -3 -12 -10 -19 -15 -16 -5 3 -13 -3 -19 -12 -6 -10 -11 -15 -11
-11 0 4 -21 -13 -47 -38 -72 -68 -77 -72 -93 -76 -20 -4 -39 -22 -33 -30 2 -5
-1 -8 -6 -8 -21 0 -37 -10 -77 -48 -8 -7 -14 -10 -14 -5 0 4 -4 3 -8 -3 -10
-15 -129 -94 -141 -94 -6 0 -11 -3 -11 -8 0 -4 -21 -18 -47 -31 -27 -14 -55
-30 -63 -37 -28 -22 -352 -181 -385 -189 -9 -2 -52 -18 -85 -32 -8 -3 -17 -7
-20 -8 -3 -1 -25 -7 -50 -15 -25 -7 -50 -17 -55 -21 -6 -4 -24 -10 -41 -13
-17 -3 -50 -12 -73 -21 -23 -8 -45 -14 -49 -14 -4 1 -9 0 -12 -1 -7 -2 -30 -7
-70 -14 -19 -4 -42 -9 -51 -12 -10 -2 -32 -7 -50 -9 -19 -3 -56 -8 -84 -12
-27 -4 -69 -8 -92 -8 -24 0 -43 -3 -43 -7 0 -4 -11 -3 -24 2 -13 5 -26 6 -29
3 -9 -8 -276 -7 -337 2 -30 5 -62 9 -70 10 -37 6 -87 16 -115 25 -16 5 -41 11
-55 14 -25 4 -108 30 -145 45 -95 39 -221 97 -223 103 -2 4 -8 8 -14 8 -6 0
-37 18 -70 40 -33 22 -64 40 -68 40 -4 0 -15 9 -25 20 -10 11 -22 20 -26 20
-9 0 -36 21 -68 50 -9 9 -44 40 -78 69 -35 29 -63 56 -63 59 0 4 194 7 430 7
336 -1 430 2 426 11 -3 7 0 14 5 16 5 2 11 13 12 26 0 12 4 22 7 22 4 0 7 7 8
15 1 8 3 22 4 30 1 8 5 15 10 15 5 0 7 3 5 7 -3 5 0 19 6 33 5 14 11 30 12 35
2 6 4 17 6 25 2 8 8 18 14 22 5 4 10 15 10 25 2 33 17 83 26 83 5 0 6 6 3 14
-3 8 0 17 5 21 6 3 9 11 6 16 -4 5 -1 9 5 9 6 0 8 5 5 10 -4 6 -2 16 3 23 11
13 12 17 12 43 0 8 4 13 9 10 5 -3 9 0 8 7 -1 39 4 58 15 51 6 -4 8 -3 4 4 -3
6 -1 23 6 39 6 15 12 31 13 36 2 4 4 10 5 15 1 4 3 12 4 17 1 6 7 23 14 38 7
16 12 37 12 48 0 11 4 18 9 15 5 -4 8 1 7 11 -2 9 4 29 11 44 8 15 16 38 18
50 2 11 10 28 17 37 11 13 11 14 -2 7 -12 -7 -13 -6 -3 6 7 9 14 24 16 35 2
10 9 29 16 42 7 13 10 30 7 38 -3 8 -2 13 2 10 4 -3 14 16 22 42 17 58 35 79
54 63 8 -7 17 -8 20 -3 3 5 17 8 31 6 14 -2 36 -6 50 -8 13 -2 22 0 20 5 -3 4
4 7 15 6 11 -1 20 -5 20 -10 0 -5 7 -3 17 4 13 11 17 11 20 1 3 -6 9 -10 14
-6 19 11 69 13 69 2 0 -6 7 -5 17 3 13 11 17 11 20 2 3 -8 11 -10 21 -5 9 5
28 7 42 5 14 -2 31 -3 38 -3 25 0 42 0 55 -1 6 -1 33 1 60 4 32 3 47 1 47 -6
0 -7 5 -5 10 3 7 11 10 11 10 2 0 -7 5 -10 11 -6 16 10 89 12 89 2 0 -4 5 -8
11 -8 5 0 7 4 4 10 -4 6 2 7 17 1 15 -6 31 -5 43 2 14 7 20 7 23 -1 2 -7 8
-10 13 -6 15 9 109 11 109 1 0 -4 5 -5 12 -1 17 11 82 10 90 -1 5 -6 8 -5 8 3
0 7 4 11 9 8 5 -3 12 1 15 10 4 10 2 13 -7 8 -6 -4 -4 2 6 13 9 11 14 23 10
26 -3 4 -2 7 4 7 6 0 10 6 10 13 -1 23 15 77 24 77 4 0 6 9 4 20 -2 11 1 20 7
20 6 0 8 3 5 7 -4 3 0 17 9 31 8 13 13 26 10 29 -3 3 0 15 6 27 7 11 11 24 10
28 -1 4 5 22 13 41 8 19 11 37 8 41 -4 3 -1 6 6 6 8 0 11 7 7 15 -3 8 -1 15 4
15 6 0 9 3 9 8 -4 21 2 42 10 38 5 -4 7 3 4 14 -3 12 0 20 6 20 7 0 10 4 7 8
-3 5 8 45 24 89 16 45 26 84 23 87 -4 3 -1 6 6 6 7 0 11 6 8 14 -3 7 0 19 6
26 9 10 9 11 0 6 -7 -4 -13 -2 -13 4 0 6 -4 9 -9 6 -5 -3 -14 1 -21 9 -7 8
-24 13 -41 11 -19 -2 -29 1 -29 10 0 7 -8 13 -17 13 -56 3 -81 7 -76 13 4 7
-19 12 -39 9 -5 0 -8 4 -8 10 0 7 -12 10 -30 7 -16 -3 -30 -1 -30 4 0 5 -4 6
-10 3 -5 -3 -10 -3 -10 2 0 4 -17 9 -38 11 -20 1 -50 3 -67 5 -16 1 -33 7 -37
12 -5 6 -8 6 -8 -2 0 -6 -8 -10 -17 -8 -10 2 -18 4 -18 5 0 1 -21 3 -47 6 -34
3 -48 0 -48 -9 0 -6 -5 -4 -11 6 -8 14 -14 16 -25 6 -11 -9 -14 -8 -14 2 0 9
-3 10 -8 4 -4 -6 -43 -10 -87 -9 -44 0 -86 -4 -92 -9 -9 -6 -18 -5 -27 2 -9 8
-15 8 -18 1 -1 -5 -22 -11 -45 -12 -24 -1 -43 -4 -43 -7 0 -3 -20 -6 -45 -6
-25 0 -45 -2 -45 -6 0 -3 -6 -6 -12 -6 -16 -1 -84 -13 -112 -20 -11 -3 -29 -6
-38 -6 -10 -1 -18 -5 -18 -9 0 -4 -9 -5 -20 -3 -11 2 -20 0 -20 -6 0 -5 -9 -9
-20 -9 -11 0 -28 -4 -38 -9 -15 -9 -46 -17 -77 -22 -5 0 -19 -6 -30 -12 -11
-6 -22 -12 -25 -13 -5 -1 -10 -3 -55 -20 -11 -4 -22 -8 -25 -8 -3 -1 -15 -7
-26 -14 -12 -6 -24 -8 -28 -5 -3 3 -6 2 -6 -4 0 -11 -37 -26 -57 -24 -7 1 -13
-4 -13 -10 0 -7 -3 -9 -6 -6 -4 3 -18 -3 -32 -13 -13 -11 -33 -20 -44 -20 -10
0 -21 -7 -24 -15 -4 -8 -10 -12 -15 -9 -5 3 -9 0 -9 -7 0 -7 -3 -9 -7 -6 -3 4
-26 -4 -49 -18 -40 -23 -43 -24 -41 -6 1 12 6 17 16 13 9 -3 12 -1 7 6 -4 7
-1 15 8 18 9 3 14 10 11 14 -3 5 5 16 17 24 12 9 18 16 13 16 -5 0 1 9 13 20
12 12 22 25 22 30 0 6 5 9 12 8 7 -2 12 2 13 9 0 7 17 28 39 48 21 19 35 35
32 35 -4 0 21 28 56 61 35 34 62 65 60 70 -1 5 2 8 6 7 5 -2 27 15 50 37 22
22 57 54 79 71 21 18 51 44 66 58 15 14 33 26 38 26 6 0 7 5 4 10 -3 6 1 10 9
10 9 0 16 5 16 12 0 6 3 9 6 6 3 -4 14 1 23 10 39 37 75 61 84 55 6 -3 7 -1 3
5 -4 7 -3 12 2 12 8 0 21 9 68 49 7 5 15 7 18 4 3 -4 6 -1 6 5 0 7 6 12 14 12
8 0 17 7 20 16 3 8 10 12 16 9 5 -3 10 -2 10 3 0 5 14 15 30 22 17 7 30 16 30
21 0 5 11 11 25 15 14 3 25 10 25 16 0 5 5 6 10 3 6 -3 10 -1 10 4 0 6 7 11
15 11 8 0 15 4 15 9 0 8 37 24 53 22 4 -1 7 4 7 10 0 5 5 7 10 4 6 -3 10 -1
10 4 0 6 7 11 15 11 8 0 15 5 15 11 0 5 5 7 10 4 6 -3 10 -1 10 4 0 6 3 10 8
10 13 -3 72 23 72 31 0 5 9 7 20 5 11 -2 20 0 20 5 0 11 56 30 66 22 4 -4 4
-2 1 4 -4 7 0 15 9 18 10 4 13 2 8 -7 -4 -6 2 -4 13 6 11 9 23 14 26 10 4 -3
7 -1 7 5 0 6 6 9 14 6 7 -3 20 1 27 8 8 7 19 13 24 14 21 1 105 28 105 34 0 3
14 7 32 8 17 2 36 6 42 11 6 5 26 11 44 14 43 8 55 11 67 18 6 4 22 6 38 5 15
-1 27 2 27 6 0 4 8 7 18 6 9 0 33 3 52 7 19 3 47 6 63 6 15 0 27 5 27 12 0 7
4 6 10 -3 6 -10 13 -11 18 -5 4 6 23 10 42 9 19 -1 42 2 51 7 8 4 21 4 28 -1
8 -4 27 -4 42 0 16 5 29 5 29 1 0 -9 37 -8 46 2 4 3 15 2 25 -3 12 -7 19 -6
22 3 4 8 6 8 6 1 1 -8 14 -10 37 -7 20 3 34 1 31 -4 -3 -4 10 -8 29 -8 19 0
34 4 34 8 0 5 7 15 15 24 8 8 13 19 10 24 -4 5 -2 9 3 9 6 0 8 9 5 20 -3 11 0
20 6 20 6 0 10 3 10 8 -1 4 0 9 1 12 3 10 11 45 12 58 1 6 6 12 11 12 6 0 7 3
4 6 -3 4 -2 15 4 26 6 11 13 31 15 45 3 14 11 35 19 46 13 19 19 15 115 -84
56 -57 108 -116 116 -130 7 -15 21 -29 30 -33 9 -4 14 -9 11 -12 -3 -3 4 -16
16 -29 33 -35 58 -67 70 -92 5 -13 14 -23 19 -23 4 0 8 -6 8 -13 0 -8 8 -21
18 -30 10 -9 24 -32 32 -52 8 -19 17 -35 22 -35 4 0 8 -4 8 -10 0 -5 13 -31
29 -58 61 -104 181 -407 194 -492 2 -14 7 -32 10 -40 3 -8 9 -33 12 -55 4 -22
9 -51 12 -65 2 -14 6 -34 7 -45 1 -12 5 -26 9 -32 4 -6 7 -22 7 -34 -1 -60 8
-221 13 -226 3 -3 2 -16 -3 -29 -6 -16 -6 -24 1 -24 6 0 6 -6 0 -19 -6 -10 -8
-21 -4 -25 9 -9 10 -59 0 -78 -5 -11 -4 -18 3 -18 7 0 8 -6 1 -18 -6 -11 -6
-24 0 -35 6 -9 6 -17 2 -17 -7 0 -13 -56 -17 -175 l-1 -40 58 1 c31 1 60 3 62
6 6 6 12 31 23 93 8 47 7 588 -1 625 -15 66 -26 144 -21 151 3 5 1 9 -4 9 -5
0 -9 6 -9 13 -1 12 -7 41 -18 87 -4 14 -8 35 -10 46 -2 12 -8 31 -14 43 -7 11
-9 21 -5 21 3 0 1 7 -6 15 -7 8 -10 15 -7 15 3 0 -5 27 -18 59 -13 33 -20 62
-17 65 3 3 -1 6 -8 6 -7 0 -11 2 -8 6 10 9 -136 328 -162 354 -12 12 -70 112
-70 121 0 5 -4 9 -10 9 -5 0 -17 15 -26 33 -9 17 -20 34 -23 37 -3 3 -33 39
-65 80 -33 41 -72 87 -88 103 -15 15 -28 29 -28 32 0 3 -25 29 -55 59 -30 29
-55 51 -55 48 0 -3 -9 5 -20 18 -11 13 -20 27 -20 32 0 5 -5 6 -10 3 -6 -3
-13 1 -16 9 -3 9 -13 16 -21 16 -8 0 -12 4 -9 9 4 5 -7 15 -23 22 -16 7 -28
16 -25 20 2 4 -7 14 -21 23 -14 9 -25 14 -25 10 0 -4 -9 5 -21 20 -11 14 -24
24 -28 22 -4 -3 -14 4 -21 15 -8 10 -19 19 -25 19 -6 0 -20 8 -31 18 -38 33
-87 65 -80 51 4 -8 -1 -4 -12 9 -11 12 -28 22 -36 22 -9 0 -19 7 -22 15 -4 8
-10 12 -15 9 -5 -3 -9 0 -9 6 0 6 -4 9 -9 5 -5 -3 -16 2 -25 11 -9 8 -25 16
-36 17 -11 1 -22 7 -25 15 -3 7 -9 10 -15 7 -5 -3 -10 -2 -10 3 0 10 -32 24
-60 26 -8 1 -14 6 -13 12 1 5 -9 11 -22 12 -13 1 -40 11 -59 22 -20 11 -36 17
-36 15 0 -3 -13 1 -30 10 -16 9 -30 13 -30 9 0 -3 -11 1 -24 9 -13 9 -36 17
-52 19 -16 2 -32 7 -35 12 -4 5 -18 9 -33 9 -14 0 -26 4 -26 9 0 6 -7 8 -15 5
-8 -4 -17 -2 -20 3 -3 5 -12 7 -20 3 -8 -3 -15 -1 -15 4 0 5 -8 9 -17 10 -45
2 -73 8 -73 15 0 4 -8 7 -17 7 -19 -1 -98 9 -98 11 0 2 -76 12 -102 13 -13 1
-23 5 -23 10 0 5 -7 4 -15 -3 -8 -7 -15 -8 -15 -3 0 5 -39 9 -87 8 -49 0 -92
1 -97 4 -14 6 -77 7 -88 0z m237 -139 c0 -1 17 -3 37 -4 20 -1 40 -5 44 -8 4
-4 15 -3 25 3 13 6 19 6 19 -1 0 -5 18 -10 40 -10 25 0 40 -5 40 -12 0 -10 3
-9 9 1 5 7 11 9 14 4 3 -5 20 -10 38 -11 18 -2 36 -6 39 -10 3 -4 16 -8 30 -9
46 -4 60 -7 60 -13 0 -6 23 -9 67 -11 13 -1 20 -6 17 -11 -4 -6 -1 -8 7 -6 8
3 23 -2 33 -11 11 -9 16 -11 12 -3 -6 10 -4 11 10 4 36 -19 69 -31 89 -34 11
-2 26 -10 33 -18 12 -13 13 -13 6 0 -7 13 -5 13 9 1 9 -7 17 -10 17 -7 0 4 7
0 16 -9 9 -9 29 -19 45 -22 16 -3 29 -9 29 -14 0 -5 9 -9 20 -9 11 0 20 -5 20
-11 0 -5 4 -8 9 -4 5 3 17 -2 25 -11 9 -8 16 -12 16 -8 0 4 8 1 18 -7 9 -8 34
-24 55 -34 20 -11 37 -23 37 -28 0 -4 4 -6 9 -2 5 3 17 -2 25 -11 9 -8 16 -12
16 -8 0 4 8 -2 18 -12 9 -10 23 -20 31 -22 8 -2 23 -13 33 -24 10 -12 18 -17
18 -12 0 5 12 -4 26 -19 14 -15 29 -25 35 -22 5 4 9 -2 9 -13 0 -17 -7 -19
-75 -17 -42 1 -78 -2 -81 -6 -3 -5 -11 -6 -17 -2 -20 13 -161 12 -169 -1 -5
-6 -8 -7 -8 -1 0 6 -32 11 -75 12 -51 1 -73 -2 -68 -9 4 -7 1 -8 -8 -2 -19 12
-128 13 -135 2 -3 -5 -14 -2 -24 7 -10 9 -20 12 -24 7 -3 -4 -37 -8 -76 -6
-38 1 -73 -3 -76 -8 -4 -5 -11 -5 -18 1 -15 13 -59 10 -68 -4 -5 -7 -8 -7 -8
1 0 11 -194 14 -206 2 -4 -4 -12 -4 -18 0 -16 10 -216 10 -222 0 -3 -5 -11 -5
-17 -1 -17 10 -217 11 -223 1 -3 -5 -11 -5 -17 -1 -7 4 -93 8 -192 8 -137 1
-185 -2 -202 -13 -12 -7 -20 -19 -17 -26 3 -7 -3 -30 -12 -52 -10 -21 -19 -50
-21 -64 -3 -14 -8 -26 -13 -28 -5 -2 -6 -10 -3 -18 3 -8 -1 -14 -8 -14 -7 0
-10 -3 -6 -6 3 -4 0 -22 -8 -40 -8 -19 -12 -34 -9 -34 2 0 -3 -14 -11 -30 -9
-17 -13 -35 -10 -40 3 -6 1 -10 -5 -10 -6 0 -8 -4 -5 -10 3 -5 1 -10 -4 -10
-6 0 -10 -3 -10 -7 1 -5 0 -11 -1 -15 -1 -5 -3 -11 -4 -15 -15 -56 -39 -119
-49 -125 -9 -6 -9 -8 1 -8 10 0 9 -4 -3 -16 -13 -14 -14 -19 -3 -25 11 -7 11
-9 0 -9 -7 0 -10 -4 -7 -10 3 -5 1 -10 -5 -10 -7 0 -10 -7 -6 -15 3 -8 1 -15
-4 -15 -6 0 -9 -3 -8 -7 1 -5 -3 -18 -10 -30 -10 -18 -10 -23 0 -23 6 0 4 -6
-7 -13 -10 -8 -15 -19 -11 -25 3 -6 2 -13 -4 -17 -6 -4 -8 -11 -5 -16 4 -5 1
-9 -5 -9 -6 0 -8 -4 -5 -10 3 -5 -1 -20 -10 -33 -8 -13 -12 -27 -8 -30 3 -4 0
-7 -8 -7 -11 0 -11 -2 1 -10 11 -7 11 -10 2 -10 -7 0 -10 -4 -7 -10 3 -5 2
-10 -3 -10 -8 0 -10 -6 -14 -50 -1 -11 -5 -20 -9 -20 -6 0 -36 -81 -43 -115
-9 -40 -31 -95 -38 -95 -5 0 -7 -4 -3 -9 3 -5 1 -20 -4 -33 -17 -42 -24 -63
-28 -81 -2 -10 -8 -28 -15 -40 -7 -12 -13 -26 -13 -32 -5 -37 -19 -74 -26 -69
-5 3 -6 -2 -3 -10 3 -9 1 -16 -6 -16 -6 0 -9 -4 -6 -8 3 -5 -22 -87 -55 -183
-33 -96 -69 -201 -81 -234 -11 -33 -21 -64 -23 -70 -1 -5 -5 -17 -8 -25 -3 -8
-22 -64 -42 -125 -20 -60 -39 -117 -42 -125 -4 -8 -7 -19 -9 -25 -1 -5 -37
-109 -79 -230 -42 -121 -78 -224 -79 -230 -1 -5 -11 -35 -21 -65 -11 -30 -20
-57 -20 -60 -1 -3 -4 -12 -8 -20 -22 -56 -65 -190 -61 -190 2 0 -2 -10 -11
-23 -8 -13 -12 -27 -8 -30 3 -4 1 -7 -6 -7 -7 0 -10 -4 -7 -9 4 -5 1 -22 -6
-38 -6 -15 -12 -31 -13 -35 -2 -5 -4 -10 -5 -13 -1 -3 -3 -10 -4 -17 -2 -24
-24 -18 -48 14 -14 18 -38 47 -52 63 -14 17 -32 42 -38 57 -7 15 -16 24 -20
22 -4 -3 -8 0 -8 6 0 6 -14 31 -30 55 -17 24 -30 48 -30 54 0 6 -4 11 -8 11
-10 0 -156 289 -177 350 -1 3 -5 14 -9 25 -28 72 -38 102 -41 115 -2 8 -8 29
-14 45 -35 108 -63 236 -77 350 -3 22 -7 56 -10 75 -6 46 -5 435 1 480 3 19 7
55 10 79 3 24 7 51 9 60 3 9 8 32 11 51 7 40 23 108 32 130 6 15 13 53 15 78
1 6 6 12 11 12 6 0 8 3 4 6 -3 3 3 29 15 58 11 28 21 56 23 61 6 25 59 155 76
185 4 8 28 54 53 102 67 128 191 307 278 399 16 17 28 34 28 39 0 5 7 13 15
17 8 5 52 44 97 88 78 76 171 155 233 200 16 11 34 26 41 33 7 6 17 12 23 12
6 0 11 5 11 11 0 5 4 8 9 4 6 -3 13 1 18 8 8 14 141 95 157 95 5 0 12 4 15 9
10 15 88 52 95 46 3 -4 6 -1 6 5 0 10 38 28 53 24 4 -1 7 3 7 9 0 5 5 7 10 4
6 -3 10 -1 10 4 0 6 3 10 8 9 14 -3 62 14 62 23 0 5 3 8 8 8 4 -1 9 -1 12 1 3
1 16 4 30 6 13 2 27 8 30 12 3 4 14 9 25 10 11 2 25 7 30 12 6 4 18 6 28 5 9
-2 17 1 17 6 0 6 4 8 9 4 5 -3 12 -1 16 4 3 5 14 8 25 6 11 -2 20 0 20 6 0 5
3 8 8 7 10 -2 85 14 97 21 6 3 24 7 40 9 37 3 70 9 70 11 0 3 40 9 100 15 22
3 52 7 68 9 15 3 27 0 27 -7 0 -8 2 -8 8 0 4 6 26 10 50 10 23 -1 42 1 42 4 0
3 66 4 147 3 82 -1 148 -2 148 -3z"/>
</g>
</svg>
